/* XPM */
static char * image_name[]={
"32 32 13 2",
"  	c #000000",
". 	c #6B3939",
"X 	c #F08080",
"o 	c #FF7256",
"O 	c #DA322D",
"+ 	c #DEB887",
"@ 	c #FF6347",
"# 	c #8E2323",
"$ 	c #E9967A",
"% 	c #A52A2A",
"& 	c #B7644D",
"* 	c #D2691E",
"= 	c #96522D",
"        . . . .                                 . . . .         ",
"      . . X o . .                             . . O O . .       ",
"    . . X + X o . .                         . . @ O O O . .     ",
"  . . X + + + X o . .                     . . @ O O O O O . .   ",
". . X + + + X X X o . .                 . . @ @ O O O O O O . . ",
"# X + + + X X $ $ X o . .             . . @ @ O O O O O O O O . ",
". X + + X X X $ $ $ $ o . .         . . @ o O O O O O O O O O . ",
". . X X X X $ $ $ $ $ $ o . .     . . @ o O O O O O O O O O . . ",
"  . . $ X $ $ $ $ $ o $ $ o # . . . @ o @ O O O O O O O % . .   ",
"    . . o X $ $ $ o o o o o o # . @ o @ O O O O O O O % . .     ",
"      . . o $ $ o o o o o o o o @ o o O O O O O O O % . .       ",
"        . . o $ o o o o o o o o o o O O O O O O O % . .         ",
"          . . o o o o o o o o o o @ O O O O O O % . .           ",
"            . . o o o o o o o o @ O O O O O O % . .             ",
"              . . o o o o o o o O O O O O O % . .               ",
"                . . o o o o o O O O O O O % . .                 ",
"                . . o o o o @ O O O O O O % . .                 ",
"              . . o o o o @ O O O O O O O O % . .               ",
"            . . o o o o @ O O O O O O O O O O % . .             ",
"          . . o o o o o O O O O O O O O O O O O % . .           ",
"        . . o o o o o @ O O O O O O O O O O O O O % . .         ",
"      . . & o o o o @ O O O O % % O O O O O O O O O % . .       ",
"    . . & o o o o @ O O O O % . . % O O O O O O O O O % . .     ",
"  . . & o o o o o O O O O % . . . . % O O O O O O O O * % # .   ",
". . & o o o o o @ O O O % . .     . . % O O O O O O O O * = # . ",
". & o o o o o @ O O O % . .         . . % O O O O O O O O * = . ",
". o o o o o @ O O O % . .             . . % * O O O O O O = % . ",
". . o o o o O O O % . .                 . . % * O O O O = % . . ",
"  . . @ o @ O O % . .                     . . % = O O = % . .   ",
"    . . = O O % . .                         . . % = = % . .     ",
"      . . % % . .                             . . % % . .       ",
"        . . . .                                 . . . .         "
};
