/* XPM */
static char * closeBar_xpm[] = {
"7 20 2 1",
" 	s bg c #FFFFFFFFFFFF",
".	c #000000000000",
"   .   ",
"   .   ",
"   .   ",
"   .   ",
"   .   ",
"   .   ",
"   .   ",
"   ..  ",
"   ... ",
"   ....",
"   ... ",
"   ..  ",
"   ..  ",
"   .   ",
"   .   ",
"   .   ",
"   .   ",
"   .   ",
"   .   ",
"   .   "};
