/* XPM */
static char *smallTrash[] = {
/* columns rows colors chars-per-pixel */
"24 16 119 2",
"   c #222222",
".  c #232323",
"X  c gray15",
"o  c #272727",
"O  c gray17",
"+  c gray18",
"@  c gray19",
"#  c gray20",
"$  c #353533",
"%  c #353535",
"&  c gray21",
"*  c #373737",
"=  c #383735",
"-  c #393837",
";  c #393939",
":  c #3D3C39",
">  c #3E3D3A",
",  c #3C3C3C",
"<  c #3F3E3E",
"1  c #403F3D",
"2  c gray25",
"3  c #414141",
"4  c gray26",
"5  c #434343",
"6  c #464646",
"7  c #494949",
"8  c #4B4B4B",
"9  c #4D4A49",
"0  c #4C4C4C",
"q  c #4E4E4E",
"w  c gray31",
"e  c gray32",
"r  c gray33",
"t  c #555555",
"y  c #5B5A59",
"u  c #5A5A5A",
"i  c #5B5B5B",
"p  c #5E5E59",
"a  c gray36",
"s  c #5D5D5D",
"d  c gray37",
"f  c #5F5F5F",
"g  c #606060",
"h  c #636360",
"j  c gray39",
"k  c #646360",
"l  c #656462",
"z  c #656565",
"x  c gray40",
"c  c #676767",
"v  c #6A6967",
"b  c #6C6B65",
"n  c DimGray",
"m  c #6A6A6A",
"M  c gray42",
"N  c gray43",
"B  c #716E6E",
"V  c #73726E",
"C  c gray44",
"Z  c #717171",
"A  c #767676",
"S  c #787771",
"D  c #7A7777",
"F  c gray47",
"G  c #797979",
"H  c gray48",
"J  c #82817D",
"K  c #8A887E",
"L  c #808080",
"P  c gray51",
"I  c #838383",
"U  c gray52",
"Y  c #898880",
"T  c #8B8982",
"R  c #898986",
"E  c #888888",
"W  c #898989",
"Q  c gray55",
"!  c #92918A",
"~  c #97968B",
"^  c #96958C",
"/  c #9A988D",
"(  c #9B998F",
")  c #9B9A8E",
"_  c gray57",
"`  c #989898",
"'  c #A4A296",
"]  c #ABA99D",
"[  c gray63",
"{  c #A2A2A2",
"}  c gray64",
"|  c #A4A4A4",
" . c #A7A7A7",
".. c #AAAAAA",
"X. c gray67",
"o. c #ACACAC",
"O. c #B8B6AA",
"+. c #BAB7AB",
"@. c #BDBBAE",
"#. c #BFBCAE",
"$. c gray72",
"%. c gray73",
"&. c #BCBCBC",
"*. c #C0BEB1",
"=. c #CAC7B9",
"-. c #C3C3C3",
";. c gray77",
":. c gray79",
">. c #CACACA",
",. c gray81",
"<. c #D4D1C2",
"1. c #D7D7D7",
"2. c gray85",
"3. c gray86",
"4. c gray87",
"5. s bg c #FFFFFFFFFFFF",
"6. c gray88",
"7. c gray92",
"8. c gray93",
/* pixels */
"5.5.5.5.5.5.5.5.5.5.5.=.' ) 5.5.5.5.5.5.5.5.5.5.",
"5.5.5.5.5.5.5.5.+.Y J d & & 8 h ! O.5.5.5.5.5.5.",
"5.5.5.5.5.5.5.@.R ,.4.O | | & I z v *.5.5.5.5.5.",
"5.5.5.5.5.5.5.V :.8.7.>.;.o.A H n j p 5.5.5.5.5.",
"5.5.5.5.5.5.5.k ..$.%.-.&.` P x i q 1 5.5.5.5.5.",
"5.5.5.5.5.5.5.S r m I [ Q P Z g # X b 5.5.5.5.5.",
"5.5.5.5.5.5.5.5.6 e 5 * ,   &   7 O 5.5.5.5.5.5.",
"5.5.5.5.5.5.5.5.4 C o.f P ; t . g O 5.5.5.5.5.5.",
"5.5.5.5.5.5.5.5.2 U 2.H { 0 M o a O 5.5.5.5.5.5.",
"5.5.5.5.5.5.5.5.5 W 6.L X.s m @ u O 5.5.5.5.5.5.",
"5.5.5.5.5.5.5.5.3 Q 3.E  .f C % e O 5.5.5.5.5.5.",
"5.5.5.5.5.5.<.<.< E 1.E } t N % 4 + 5.5.5.5.5.5.",
"5.5.5.5.5.<.#.] 9 B &.G _ w u , - : 5.5.5.5.5.5.",
"5.5.5.5.5.#.] K T y D c F 7 8 $ = ~ 5.5.5.5.5.5.",
"5.5.5.5.5.#.] / / ^ l 7 7 @ & > ( 5.5.5.5.5.5.5.",
"5.5.5.5.5.5.<.#.] ] #.#.<.<.<.5.5.5.5.5.5.5.5.5."
};
